PathFileType	4	(X/Y/Z)	C:/Users/opensim2020/Desktop/walking_exp_matlab/subject03_walking15_straight_01.trc	
DataRate	CameraRate	NumFrames	NumMarkers	Units	OrigDataRate	OrigDataStartFrame	OrigNumFrames	
100.00	100.00	8	47	mm	100.00	501	196	
Frame#	Time	LFHD			RFHD			LBHD			RBHD			C7			T10			CLAV			STRN			RBAK			LSHO			LUPA			LELB			LFRM			LWRA			LWRB			LFIN			RSHO			RUPA			RELB			RFRM			RWRA			RWRB			RFIN			LASI			RASI			LPSI			RPSI			LTHI			LKNE			LTIB			LANK			LHEE			LTOE			RTHI			RKNE			RTIB			RANK			RHEE			RTOE			*39			*40			*41			*42			*43			*44			*45			*46			
		X1	Y1	Z1	X2	Y2	Z2	X3	Y3	Z3	X4	Y4	Z4	X5	Y5	Z5	X6	Y6	Z6	X7	Y7	Z7	X8	Y8	Z8	X9	Y9	Z9	X10	Y10	Z10	X11	Y11	Z11	X12	Y12	Z12	X13	Y13	Z13	X14	Y14	Z14	X15	Y15	Z15	X16	Y16	Z16	X17	Y17	Z17	X18	Y18	Z18	X19	Y19	Z19	X20	Y20	Z20	X21	Y21	Z21	X22	Y22	Z22	X23	Y23	Z23	X24	Y24	Z24	X25	Y25	Z25	X26	Y26	Z26	X27	Y27	Z27	X28	Y28	Z28	X29	Y29	Z29	X30	Y30	Z30	X31	Y31	Z31	X32	Y32	Z32	X33	Y33	Z33	X34	Y34	Z34	X35	Y35	Z35	X36	Y36	Z36	X37	Y37	Z37	X38	Y38	Z38	X39	Y39	Z39	X40	Y40	Z40	X41	Y41	Z41	X42	Y42	Z42	X43	Y43	Z43	X44	Y44	Z44	X45	Y45	Z45	X46	Y46	Z46	X47	Y47	Z47	

1	0.000	1344.49866	-961.08258	1618.44397	1476.21667	-974.11835	1620.83838	1336.71265	-1080.72620	1556.63245	1466.96899	-1089.57251	1558.98206	1385.50403	-1103.69873	1410.96423	1379.52344	-1165.83252	1107.92737	1402.64172	-981.71808	1332.62463	1397.21045	-952.33990	1162.50586	1475.39197	-1175.21997	1244.67981	1242.97583	-1003.93213	1373.30750	1164.47168	-1006.51520	1178.42603	1150.78259	-1000.28040	1055.75757	1148.71191	-983.42566	925.41235	1173.04895	-985.20465	803.73804	1117.61389	-989.80957	815.82739	1123.67188	-990.03625	729.00958	1555.57837	-1047.63354	1357.95874	1631.35559	-1078.48242	1140.12195	1648.16284	-1076.94006	1027.23486	1655.54346	-1080.55310	890.00916	1622.78723	-1067.12390	788.69427	1669.66187	-1095.29065	791.53632	1659.81482	-1086.39478	715.56158	1281.17773	-1016.75629	924.12506	1511.94336	-1036.85718	933.67004	1315.44080	-1178.11584	964.88745	1463.15271	-1190.00195	973.72980	1243.54333	-1098.77441	625.23132	1288.03857	-1121.20911	452.19107	1275.78772	-1207.32312	271.38086	1309.53503	-1279.19751	72.42755	1339.21460	-1331.15942	41.14661	1347.33887	-1137.50500	35.42487	1577.80579	-1027.52502	652.98779	1564.75696	-940.58142	494.12466	1561.24133	-1020.67603	318.85114	1512.39893	-1100.33411	119.34590	1453.63013	-1143.75085	95.42960	1519.61865	-978.96149	52.02733																								 
2	0.010	1345.94458	-952.40173	1617.65405	1477.76282	-965.29236	1620.01172	1338.22852	-1071.99438	1555.79456	1468.51941	-1080.68396	1558.11035	1386.94165	-1094.94629	1410.11011	1379.99060	-1156.78772	1106.88000	1404.04138	-972.89612	1331.79199	1398.34338	-943.58826	1161.64954	1476.17468	-1166.56592	1243.41821	1244.37390	-995.21216	1372.70154	1166.51318	-995.86127	1178.01135	1153.38074	-987.72821	1055.18042	1153.01672	-967.49060	925.52930	1179.05530	-966.02197	804.15979	1123.51831	-971.09698	815.08362	1130.56067	-965.65179	729.49939	1556.94482	-1039.42456	1356.62683	1632.35425	-1071.13806	1138.74634	1649.37415	-1070.64722	1025.86243	1657.08301	-1075.68469	888.78479	1623.92603	-1065.52039	787.23431	1671.07214	-1091.53687	790.35297	1661.32104	-1082.54700	714.64569	1281.79443	-1007.41376	922.92102	1513.01233	-1027.44409	933.02405	1316.44702	-1169.08826	963.73444	1464.15417	-1180.78088	972.86182	1244.28821	-1093.86768	624.48969	1288.63525	-1119.40393	451.77652	1276.03589	-1206.43945	271.80969	1309.55444	-1279.15161	73.23134	1339.23938	-1331.03149	42.15010	1347.26355	-1137.28308	35.25439	1579.17200	-1014.89410	654.14819	1564.64905	-926.53265	495.96182	1563.47949	-996.26532	315.89566	1516.42615	-1063.70972	111.30059	1458.50806	-1106.74316	85.07346	1520.68787	-938.16614	50.65987																								 
3	0.020	1347.42761	-943.57977	1616.78088	1479.23926	-956.30243	1619.08459	1339.82581	-1063.18286	1554.86194	1470.10510	-1071.76697	1557.13342	1388.43030	-1086.08240	1409.16821	1380.60718	-1147.76978	1105.76001	1405.53247	-964.05267	1330.81628	1399.52319	-934.75897	1160.58240	1476.88379	-1157.86218	1241.91467	1245.86243	-986.36200	1372.02979	1168.44751	-985.04736	1177.06360	1155.77759	-975.57532	1054.55359	1157.12878	-951.51953	925.60413	1185.12659	-946.54431	804.85962	1129.60413	-952.18652	814.59106	1137.81372	-941.58990	730.31183	1558.38293	-1030.94971	1355.07910	1633.33105	-1063.68054	1137.24695	1650.62659	-1064.05005	1024.36365	1658.59717	-1070.56299	887.36554	1626.80005	-1058.05200	785.88055	1672.59802	-1087.83313	789.22119	1663.26318	-1078.48828	713.55164	1282.55322	-998.59729	921.43298	1513.80847	-1017.64581	932.29523	1317.52722	-1160.16187	962.43134	1465.24976	-1171.49377	971.84717	1245.09949	-1088.71387	623.95575	1289.16577	-1117.49280	451.62567	1276.29565	-1205.61523	272.44214	1309.81287	-1279.03479	73.94639	1339.19763	-1330.96631	43.26449	1347.46313	-1137.54565	35.26814	1580.35315	-1002.81635	654.59601	1564.31506	-913.17609	497.20831	1565.98706	-972.04034	313.00488	1520.68921	-1026.97339	104.07980	1463.73999	-1069.51013	75.64646	1521.43298	-897.68713	49.76216																								 
4	0.030	1349.08191	-934.66211	1615.78943	1480.93103	-947.40814	1618.11926	1341.49316	-1054.22095	1553.76990	1471.81482	-1062.73633	1556.01282	1390.06409	-1077.01636	1408.17419	1381.24036	-1138.77588	1104.63281	1407.05615	-955.06152	1329.69397	1400.77576	-926.00067	1159.39160	1477.71631	-1149.04065	1240.29248	1247.40808	-977.32660	1371.25110	1170.63000	-974.19965	1176.36157	1158.49377	-962.70166	1053.94226	1161.29297	-935.78662	925.73572	1191.37292	-926.60608	806.01123	1135.84692	-933.21979	814.32947	1145.35999	-917.73853	731.56458	1559.98279	-1022.08209	1353.38879	1634.32520	-1055.90564	1135.57043	1651.90649	-1057.23010	1022.77722	1660.11792	-1065.06689	885.84314	1628.76147	-1052.95935	784.14459	1674.32263	-1083.58765	787.93439	1665.51147	-1073.56531	712.48157	1283.27649	-989.59467	919.97882	1514.61877	-1007.64264	931.50494	1318.76672	-1151.30688	960.90155	1466.56750	-1162.09290	970.71527	1245.95667	-1083.23071	623.29352	1289.46399	-1115.68713	451.70486	1276.70667	-1204.72412	273.20721	1310.05884	-1278.92151	74.78669	1339.22937	-1330.87805	44.93406	1347.47083	-1137.56653	35.24406	1581.58838	-991.04639	654.76398	1563.98669	-900.49377	498.00024	1568.35986	-948.66400	310.53735	1525.21704	-990.48291	97.72637	1469.26831	-1032.44861	67.34655	1521.96741	-857.83539	49.37715	1393.19458	-1029.97388	1663.24768																					 
5	0.040	1350.67285	-925.63440	1614.72412	1482.49438	-938.25305	1616.96790	1343.23547	-1045.16711	1552.57715	1473.57153	-1053.53760	1554.75659	1391.66113	-1067.75305	1407.02051	1382.00024	-1129.72632	1103.43079	1408.60352	-945.85040	1328.51147	1402.00696	-917.10046	1158.10217	1478.52722	-1140.06018	1238.56213	1249.06836	-968.16437	1370.42358	1173.04553	-963.15887	1175.80676	1160.54529	-951.07141	1053.44348	1165.43347	-920.11328	926.10620	1197.71362	-906.49713	807.63177	1142.15845	-913.91803	814.44452	1153.02856	-894.05182	733.34222	1561.57288	-1013.46002	1351.66028	1635.44397	-1047.94177	1133.83423	1653.18591	-1050.10718	1021.10345	1661.60779	-1059.07898	884.23883	1630.87415	-1047.60559	782.60754	1675.83679	-1078.65881	786.56793	1668.40576	-1068.03943	711.48254	1283.94580	-980.75800	918.64948	1515.43079	-997.30701	930.73633	1320.13232	-1142.34436	959.12531	1468.01074	-1152.46472	969.25299	1246.84375	-1077.82849	623.19580	1289.77441	-1113.45874	451.84814	1277.19006	-1203.65491	274.15381	1310.54468	-1278.87549	76.31268	1339.87976	-1330.78015	46.64385	1347.49695	-1137.69385	35.18735	1582.82922	-979.48132	654.46234	1563.70837	-888.42224	498.27808	1570.79565	-926.37445	308.46432	1529.95825	-954.49286	92.43036	1475.03528	-996.02655	60.33269	1522.41638	-819.27344	49.53672	1394.92249	-1020.99017	1662.03064																					 
6	0.050	1352.36316	-916.61224	1613.65112	1484.14746	-928.98254	1615.80688	1345.03992	-1036.10449	1551.23962	1475.40796	-1044.21716	1553.45325	1393.50659	-1058.53601	1406.17908	1383.01648	-1120.80029	1102.42847	1410.18640	-936.63788	1327.24915	1403.07605	-908.21320	1156.78271	1479.34119	-1130.98840	1236.92664	1250.79895	-958.74408	1369.55713	1175.16821	-952.17365	1175.36304	1162.81787	-938.99341	1052.96619	1169.54077	-904.30035	926.78003	1204.00012	-886.36871	809.73334	1148.65967	-894.38464	814.90277	1160.78369	-870.63800	735.61237	1563.19617	-1004.44513	1349.93921	1636.45288	-1039.70984	1132.11755	1654.39771	-1042.56140	1019.43970	1663.01440	-1052.65161	882.70721	1632.75293	-1041.51379	780.94202	1677.37402	-1073.03015	785.24976	1670.10242	-1062.15979	710.16052	1284.50769	-971.77301	917.44391	1516.19592	-986.65497	929.90704	1321.69775	-1133.49866	957.25006	1469.58875	-1142.73499	967.77618	1247.47412	-1072.36511	623.17316	1290.35461	-1110.54468	452.14417	1277.90967	-1202.36829	275.23547	1311.23828	-1278.67017	77.68829	1340.65613	-1330.73682	48.57361	1347.54187	-1137.71533	35.14766	1584.35217	-968.11914	653.88867	1563.40466	-877.10974	498.01428	1573.13391	-905.29694	306.55853	1534.69275	-919.77759	88.41730	1480.90967	-960.73901	54.38709	1522.81262	-782.53302	50.95344	1396.69812	-1011.96326	1660.80481																					 
7	0.060	1353.80530	-907.19440	1612.79858	1485.93335	-919.69470	1614.72913	1346.97717	-1026.79919	1549.89966	1477.30420	-1034.78931	1552.16711	1395.32898	-1049.05688	1405.19873	1384.21326	-1111.79285	1101.45789	1411.86060	-927.26855	1326.01855	1404.26587	-899.12299	1155.49036	1480.31396	-1121.72546	1235.37537	1252.64233	-949.07947	1368.74170	1177.14929	-940.92365	1175.14905	1164.98401	-926.65875	1052.65906	1173.56580	-888.67609	927.81909	1210.42065	-866.04669	812.52618	1155.17664	-875.02264	815.91467	1168.76477	-847.53687	738.54218	1564.94092	-995.15192	1348.24597	1637.62939	-1031.37280	1130.45935	1655.60181	-1036.00696	1018.16632	1664.42566	-1045.72314	881.19794	1634.47644	-1034.89539	779.37292	1678.70898	-1067.05518	784.03522	1672.90613	-1055.38831	709.30975	1284.80566	-963.00610	916.31555	1516.98486	-975.85229	929.12628	1323.41638	-1124.61670	955.24500	1471.28479	-1132.76013	966.04395	1248.33521	-1066.25952	623.07324	1290.95398	-1107.25989	452.39505	1278.80566	-1200.65515	276.45920	1312.12402	-1278.59619	79.44592	1341.63635	-1330.60596	50.80477	1347.62195	-1137.85242	35.11930	1586.20972	-957.10016	653.00500	1562.95386	-866.58673	496.95996	1575.24744	-885.47290	304.91019	1539.20679	-886.87402	85.69592	1486.52844	-927.25519	49.61071	1523.58862	-748.04645	53.95083	1398.55566	-1002.91266	1659.51453																					 
8	0.070	1355.83459	-898.05084	1611.52612	1487.79773	-910.23767	1613.69373	1348.95227	-1017.45892	1548.56128	1479.32617	-1025.22974	1550.87024	1397.21106	-1039.49060	1404.09680	1385.58862	-1102.62134	1100.51758	1413.56323	-917.77295	1324.76453	1405.35803	-889.98553	1154.14966	1481.48633	-1112.30273	1234.01428	1254.63269	-939.34564	1367.89246	1179.47266	-930.28613	1174.80078	1166.79309	-915.47784	1052.45728	1177.45923	-873.11890	929.24207	1216.71960	-846.03864	815.90674	1161.68555	-855.66595	817.47479	1176.74780	-824.71747	741.98358	1566.72668	-985.78046	1346.66907	1638.91687	-1022.69482	1129.11719	1656.94141	-1027.69556	1016.66199	1665.84436	-1038.22876	879.81061	1636.24390	-1027.66443	777.87561	1680.25403	-1060.13684	782.73914	1675.23987	-1048.24792	708.48492	1285.19958	-953.86383	915.35272	1517.83618	-964.74243	928.44904	1325.26477	-1115.53015	953.08887	1473.14075	-1122.47314	964.15527	1249.36401	-1059.52502	622.92249	1291.69629	-1103.18909	452.53091	1279.80786	-1198.44873	277.78827	1313.11279	-1278.26929	81.32130	1342.80103	-1330.38696	53.43942	1347.67188	-1137.90759	35.09898	1588.11584	-946.41333	651.59302	1562.30408	-856.52454	495.42270	1577.06873	-866.85529	303.61145	1543.39551	-856.47662	84.23357	1492.01440	-895.92340	45.86022	1525.23389	-716.40399	58.19016	1400.23291	-993.48877	1657.96472																					 
